<svg width="1052" height="52" viewBox="0 0 1052 52" fill="none" xmlns="http://www.w3.org/2000/svg">
<g clip-path="url(#clip0_1_23810)">
<path d="M40.735 44.7206L40.1323 39.7306C40.1313 39.7223 40.1302 39.714 40.1288 39.7057C39.9633 38.6862 39.488 37.7423 38.7676 37.0022C38.0472 36.2621 37.1165 35.7615 36.1019 35.5684L29.9556 34.4123H29.9552L28.2906 34.0992C29.9038 33.7856 31.4919 33.3546 33.0423 32.8097C33.7346 32.5655 34.3207 32.0888 34.701 31.461C35.0813 30.8331 35.2322 30.0929 35.128 29.3662L34.169 22.7914H34.704C35.047 22.791 35.3758 22.6546 35.6183 22.4121C35.8609 22.1695 35.9973 21.8407 35.9976 21.4977V18.8712C35.9973 18.5282 35.8609 18.1994 35.6183 17.9569C35.3758 17.7143 35.047 17.5779 34.704 17.5775H33.6401C33.557 17.3792 33.4518 17.1909 33.3265 17.0161L32.7916 13.3483C32.4123 10.7512 31.1109 8.37732 29.1254 6.66084C27.1398 4.94436 24.6027 3.99993 21.978 4.00024H21.4932C18.8319 4.00376 16.2631 4.9768 14.2674 6.73733C12.2716 8.49785 10.9857 10.9252 10.6503 13.5653L10.1469 17.5775H9.09455C8.75155 17.5779 8.42271 17.7143 8.18017 17.9568C7.93763 18.1994 7.80121 18.5282 7.80085 18.8712V21.4977C7.80121 21.8407 7.93763 22.1696 8.18017 22.4121C8.42271 22.6546 8.75155 22.7911 9.09455 22.7914H9.49296L8.66194 29.4159C8.5752 30.131 8.73377 30.8544 9.1117 31.4676C9.48963 32.0809 10.0645 32.5477 10.7423 32.7916C12.3408 33.3569 13.9797 33.8005 15.6451 34.1188L14.2269 34.3976L14.2174 34.3995L8.14082 35.5945C7.19546 35.7818 6.32387 36.2369 5.62986 36.9056C4.93586 37.5743 4.44868 38.4284 4.22637 39.3661C4.22362 39.3774 4.22124 39.3887 4.21923 39.4001L3.29996 44.523C3.20462 44.9395 3.20437 45.3721 3.29925 45.7887C3.39412 46.2053 3.58168 46.5951 3.84797 46.9292C4.11425 47.2634 4.45243 47.5332 4.83734 47.7186C5.22226 47.904 5.64402 48.0003 6.07127 48.0002H37.9249C38.3352 48.0003 38.7406 47.9115 39.1134 47.74C39.4861 47.5685 39.8174 47.3184 40.0844 47.0068C40.3513 46.6953 40.5477 46.3296 40.66 45.935C40.7723 45.5403 40.7979 45.1261 40.735 44.7206ZM33.8605 18.8685L34.7087 18.8711L34.704 21.5024H33.8605V18.8685ZM33.0031 23.7298L33.8524 29.5524C33.914 29.9833 33.8242 30.4222 33.5985 30.7944C33.3728 31.1666 33.025 31.4491 32.6144 31.5937C30.8281 32.2217 28.9901 32.692 27.1217 32.9994V30.5142L27.5879 30.2225C28.2672 29.7994 28.8406 29.2262 29.2639 28.5469H29.3691C30.1133 28.5462 30.8268 28.2503 31.3531 27.7241C31.8794 27.198 32.1755 26.4846 32.1764 25.7404V24.2992C32.4832 24.1593 32.7631 23.9666 33.0031 23.7298ZM24.4017 30.6955C23.6502 31.1614 22.7835 31.4083 21.8993 31.4083C21.0151 31.4083 20.1485 31.1614 19.397 30.6955L18.0608 29.8595C18.0586 29.8581 18.0562 29.8568 18.054 29.8553L16.8938 29.1295C16.3242 28.7759 15.8546 28.2825 15.5297 27.6962C15.2047 27.1098 15.0352 26.45 15.0374 25.7796V17.0576C15.6709 16.9707 16.2771 16.7443 16.8126 16.3948C17.348 16.0453 17.7992 15.5813 18.1337 15.0364C18.5434 15.4414 18.9876 15.8101 19.4611 16.1381L19.5862 16.2233C22.5191 18.2111 25.6853 17.7478 28.7609 17.2207V25.7798C28.7616 26.2862 28.6651 26.7879 28.4768 27.2579H24.1552C24.0239 26.8864 23.7807 26.5646 23.4591 26.3368C23.1375 26.109 22.7533 25.9865 22.3592 25.986H21.2646C20.7597 25.9866 20.2756 26.1874 19.9186 26.5444C19.5616 26.9015 19.3608 27.3855 19.3602 27.8904V27.9145C19.3608 28.4194 19.5616 28.9034 19.9186 29.2604C20.2757 29.6175 20.7597 29.8183 21.2646 29.8189H22.3592C22.7533 29.8184 23.1375 29.6958 23.4591 29.4681C23.7807 29.2403 24.0239 28.9186 24.1552 28.547H27.6298C27.4116 28.7689 27.1681 28.9644 26.9043 29.1297L24.4017 30.6955ZM25.8326 31.3208V34.2554C25.8323 34.3287 25.8154 34.401 25.7831 34.4668C25.7509 34.5326 25.7041 34.5902 25.6464 34.6353L22.0061 37.4687L18.5223 34.6434C18.424 34.5642 18.361 34.4493 18.347 34.3239C18.3467 34.3192 18.3467 34.3144 18.3462 34.3098C18.3452 34.2966 18.344 34.2834 18.344 34.27V31.5574L18.7135 31.7886C19.6703 32.3817 20.7737 32.696 21.8994 32.696C23.0251 32.6959 24.1285 32.3816 25.0852 31.7884L25.8326 31.3208ZM22.9745 27.8904V27.9144C22.9743 28.0776 22.9094 28.234 22.7941 28.3493C22.6787 28.4647 22.5223 28.5295 22.3592 28.5297H21.2646C21.1015 28.5295 20.9451 28.4647 20.8297 28.3493C20.7143 28.234 20.6495 28.0776 20.6493 27.9144V27.8904C20.6495 27.7272 20.7143 27.5708 20.8297 27.4554C20.945 27.3401 21.1014 27.2752 21.2646 27.275H22.3592C22.5223 27.2752 22.6787 27.3401 22.7941 27.4554C22.9094 27.5708 22.9743 27.7272 22.9745 27.8904ZM29.8632 27.1736C29.9874 26.7194 30.0502 26.2506 30.05 25.7797V24.5568H30.8874V25.7404C30.8868 26.0561 30.7879 26.3638 30.6043 26.6207C30.4208 26.8776 30.1617 27.0709 29.8632 27.1737V27.1736ZM32.5714 18.6792V21.6897C32.5709 22.1081 32.4045 22.5092 32.1087 22.805C31.8129 23.1009 31.4118 23.2673 30.9934 23.2678H30.05V17.1012H30.9934C31.4118 17.1016 31.8129 17.2681 32.1087 17.5639C32.4045 17.8597 32.5709 18.2609 32.5714 18.6792ZM11.9292 13.7257C12.2252 11.3971 13.3594 9.2561 15.1198 7.70331C16.8801 6.15052 19.1459 5.29233 21.4933 5.28931H21.9781C24.2931 5.28897 26.5309 6.12193 28.2822 7.63586C30.0336 9.1498 31.1815 11.2435 31.516 13.5342L31.8683 15.9493C31.5856 15.8584 31.2905 15.8121 30.9935 15.8121H29.438C29.4348 15.812 29.4317 15.8123 29.4286 15.8121H29.4055L29.403 15.8123C29.3829 15.8123 29.3628 15.8134 29.3428 15.8154L29.3342 15.8163C29.3218 15.8177 29.3095 15.8185 29.2973 15.8206L28.8561 15.8963C25.7995 16.4229 22.9124 16.9202 20.3096 15.1562L20.1923 15.0763C19.5436 14.6269 18.9599 14.0905 18.4574 13.4822C18.3838 13.3931 18.2877 13.3254 18.179 13.2862C18.0704 13.247 17.9532 13.2377 17.8397 13.2593C17.7262 13.2809 17.6207 13.3326 17.534 13.409C17.4474 13.4854 17.3829 13.5837 17.3472 13.6936C17.1465 14.3152 16.752 14.8562 16.2216 15.2374C15.6912 15.6186 15.0527 15.82 14.3996 15.8122L14.3967 15.8123L14.3929 15.8121H12.8051C12.402 15.8122 12.0035 15.8979 11.6361 16.0635L11.9292 13.7257ZM11.2271 18.6791C11.2276 18.2608 11.394 17.8598 11.6898 17.564C11.9856 17.2681 12.3867 17.1017 12.805 17.1012H13.7483V23.2678H12.805C12.3866 23.2673 11.9855 23.1009 11.6897 22.805C11.3939 22.5092 11.2275 22.1081 11.227 21.6897L11.2271 18.6791ZM9.08983 21.4977L9.09447 18.8666H9.93794V21.5004L9.08983 21.4977ZM11.1723 31.5765C10.7709 31.4318 10.4305 31.1551 10.2068 30.7918C9.98305 30.4284 9.88931 29.9999 9.94086 29.5764L10.6882 23.619C10.9561 23.9143 11.2828 24.1503 11.6474 24.3119C12.0119 24.4734 12.4063 24.5568 12.805 24.5568H13.7483V25.7797C13.7455 26.6688 13.9702 27.5438 14.4012 28.3214C14.8321 29.0991 15.4549 29.7535 16.2103 30.2224L17.055 30.751V33.054C15.0522 32.7467 13.0826 32.2521 11.1723 31.5765ZM17.2682 35.1133C17.3793 35.3177 17.5295 35.4983 17.7103 35.6447L21.2741 38.5347C21.4772 38.7009 21.7308 38.7928 21.9931 38.7954C22.2554 38.7979 22.5108 38.7109 22.717 38.5488L26.4379 35.6528C26.6162 35.5136 26.7661 35.3413 26.8794 35.1455L29.1116 35.5653C29.0286 35.8177 28.873 36.04 28.6642 36.2043L22.033 41.3653C22.0059 41.3865 21.9724 41.3978 21.9379 41.3975C21.9035 41.3971 21.8702 41.3851 21.8435 41.3633L15.491 36.2112C15.2804 36.0405 15.1271 35.8095 15.0517 35.5492L17.2682 35.1133ZM39.1082 46.165C38.9623 46.3364 38.781 46.474 38.5766 46.5683C38.3723 46.6626 38.1499 46.7113 37.9249 46.7112H6.07127C5.8369 46.7112 5.60557 46.6582 5.39458 46.5562C5.1836 46.4541 4.99843 46.3057 4.85294 46.1219C4.70746 45.9382 4.60542 45.7239 4.55448 45.4952C4.50353 45.2664 4.505 45.0291 4.55877 44.801C4.56141 44.7897 4.56373 44.7783 4.56573 44.7668L5.48475 39.6456C5.65239 38.9523 6.01502 38.3214 6.52979 37.8277C7.04455 37.3339 7.68992 36.9979 8.38961 36.8592L13.7827 35.7988C13.9184 36.3557 14.2335 36.8526 14.6795 37.2128L21.0319 42.3647C21.2844 42.5709 21.5996 42.6849 21.9256 42.6881C22.2516 42.6912 22.5689 42.5833 22.8254 42.3821L29.4567 37.2211C29.9151 36.8653 30.2422 36.3672 30.3865 35.8051L35.8632 36.8352C36.6153 36.9783 37.3053 37.3488 37.8402 37.8965C38.375 38.4442 38.7289 39.1428 38.8541 39.8981L39.4565 44.8867C39.4576 44.8949 39.4588 44.9031 39.4601 44.9113C39.4957 45.1333 39.4827 45.3604 39.422 45.5769C39.3612 45.7934 39.2541 45.994 39.1081 46.165H39.1082Z" fill="#F4F4F4"/>
</g>
<text fill="#F4F4F4" xml:space="preserve" style="white-space: pre" font-family="Poppins" font-size="15" font-weight="500" letter-spacing="0px"><tspan x="55.9246" y="21.4387">24 X 7 Customer </tspan><tspan x="55.9246" y="40.8161">Support</tspan></text>
<path d="M284.446 34.5102C284.348 34.5099 284.251 34.4932 284.159 34.4607C284.054 34.4231 283.957 34.3652 283.874 34.2901C283.791 34.215 283.724 34.1243 283.676 34.0232C283.628 33.922 283.6 33.8124 283.595 33.7007C283.589 33.5889 283.605 33.4771 283.643 33.3717C284.023 32.3024 284.319 31.2051 284.528 30.0899C284.571 29.8679 284.699 29.6717 284.886 29.5446C285.073 29.4174 285.303 29.3697 285.525 29.412C285.747 29.4543 285.943 29.583 286.07 29.7699C286.198 29.9568 286.245 30.1866 286.203 30.4086C285.977 31.6101 285.658 32.7922 285.249 33.9443C285.189 34.1099 285.081 34.2532 284.937 34.3545C284.793 34.4558 284.622 34.5102 284.446 34.5102Z" fill="#F4F4F4"/>
<path d="M279.095 43.0316C278.928 43.031 278.764 42.9809 278.625 42.8878C278.486 42.7946 278.377 42.6625 278.312 42.5079C278.248 42.3533 278.23 42.1831 278.262 42.0186C278.294 41.8541 278.373 41.7026 278.49 41.5829C279.488 40.5775 280.386 39.4786 281.173 38.3012C281.298 38.1132 281.493 37.9827 281.715 37.9384C281.937 37.8941 282.167 37.9397 282.355 38.0652C282.543 38.1906 282.673 38.3856 282.718 38.6072C282.762 38.8289 282.716 39.0591 282.591 39.2471C281.743 40.5135 280.775 41.6952 279.7 42.776C279.621 42.8565 279.527 42.9206 279.423 42.9645C279.32 43.0083 279.208 43.0312 279.095 43.0316Z" fill="#F4F4F4"/>
<path d="M282.71 6.4648C282.561 6.39698 282.395 6.37353 282.233 6.39726C282.071 6.42098 281.919 6.49088 281.796 6.59859L279.29 8.79551C276.109 5.74229 272.145 3.63043 267.837 2.69449C263.528 1.75854 259.045 2.03515 254.884 3.49358C250.724 4.95202 247.049 7.53519 244.268 10.9562C241.487 14.3772 239.709 18.5022 239.13 22.8729C238.552 27.2436 239.197 31.689 240.993 35.7154C242.789 39.7418 245.666 43.1915 249.304 45.6814C252.943 48.1714 257.2 49.604 261.604 49.8203C266.007 50.0366 270.384 49.028 274.249 46.9066C274.447 46.7979 274.594 46.6149 274.658 46.3979C274.721 46.1809 274.695 45.9476 274.587 45.7494C274.478 45.5512 274.295 45.4043 274.078 45.341C273.861 45.2777 273.628 45.3032 273.429 45.4119C269.844 47.3855 265.781 48.3275 261.693 48.1337C257.605 47.9398 253.65 46.6176 250.267 44.3136C246.884 42.0096 244.205 38.8139 242.527 35.0806C240.849 31.3473 240.238 27.2223 240.761 23.1628C241.284 19.1034 242.921 15.2681 245.49 12.082C248.06 8.89594 251.461 6.48359 255.318 5.11237C259.174 3.74115 263.335 3.46462 267.339 4.31342C271.343 5.16223 275.034 7.10322 278.002 9.92123L274.982 12.563C274.851 12.6769 274.758 12.828 274.716 12.996C274.673 13.1641 274.683 13.3412 274.744 13.5037C274.804 13.6661 274.913 13.8062 275.055 13.9052C275.198 14.0042 275.367 14.0574 275.54 14.0577H282.358C282.584 14.0577 282.8 13.9679 282.96 13.8081C283.12 13.6483 283.21 13.4315 283.21 13.2055V7.24028C283.21 7.07663 283.163 6.91649 283.074 6.77897C282.985 6.64145 282.859 6.53238 282.71 6.4648Z" fill="#F4F4F4"/>
<path d="M285.767 25.9887C285.547 25.9888 285.335 25.9034 285.176 25.7503C285.017 25.5973 284.923 25.3885 284.915 25.168C284.876 24.0675 284.751 22.9717 284.542 21.8905C284.502 21.6701 284.551 21.4428 284.677 21.2578C284.804 21.0729 284.998 20.9452 285.218 20.9024C285.438 20.8596 285.666 20.9052 285.852 21.0292C286.039 21.1532 286.169 21.3457 286.215 21.565C286.441 22.7328 286.576 23.9163 286.62 25.105C286.624 25.2169 286.606 25.3286 286.567 25.4336C286.528 25.5386 286.469 25.6349 286.392 25.7169C286.316 25.799 286.225 25.8653 286.123 25.9119C286.021 25.9585 285.911 25.9846 285.799 25.9887H285.767Z" fill="#F4F4F4"/>
<path d="M271.719 18.8525L265.568 13.6209C265.223 13.3258 264.788 13.1571 264.334 13.1426C263.881 13.1281 263.436 13.2686 263.072 13.541L260.407 15.5378L258.729 13.8605C258.355 13.4886 257.849 13.2799 257.322 13.2799C256.794 13.2799 256.288 13.4886 255.914 13.8605L250.922 18.9025C250.209 19.0008 249.555 19.3526 249.08 19.8934C248.605 20.4343 248.341 21.1281 248.336 21.8478V35.8254C248.336 36.6198 248.652 37.3817 249.213 37.9434C249.775 38.5051 250.537 38.8206 251.331 38.8206H271.299C272.094 38.8206 272.855 38.5051 273.417 37.9434C273.979 37.3817 274.294 36.6198 274.294 35.8254V21.8478C274.302 21.121 274.044 20.4164 273.57 19.8653C273.096 19.3142 272.438 18.9543 271.719 18.8525ZM272.298 30.8334H270.301C269.771 30.8334 269.263 30.623 268.889 30.2486C268.514 29.8741 268.304 29.3662 268.304 28.8366C268.304 28.307 268.514 27.7991 268.889 27.4246C269.263 27.0502 269.771 26.8398 270.301 26.8398H272.298V30.8334ZM264.31 15.1385L268.604 18.8525H263.721L261.834 16.9656L264.31 15.1385ZM257.322 15.2683L260.906 18.8525H253.737L257.322 15.2683ZM271.299 36.8238H251.331C251.066 36.8238 250.812 36.7186 250.625 36.5314C250.438 36.3442 250.333 36.0902 250.333 35.8254V21.8478C250.333 21.583 250.438 21.329 250.625 21.1418C250.812 20.9545 251.066 20.8494 251.331 20.8494H271.299C271.564 20.8494 271.818 20.9545 272.005 21.1418C272.192 21.329 272.298 21.583 272.298 21.8478V24.843H270.301C269.242 24.843 268.226 25.2637 267.477 26.0127C266.728 26.7616 266.307 27.7774 266.307 28.8366C266.307 29.8958 266.728 30.9116 267.477 31.6605C268.226 32.4095 269.242 32.8302 270.301 32.8302H272.298V35.8254C272.298 36.0902 272.192 36.3442 272.005 36.5314C271.818 36.7186 271.564 36.8238 271.299 36.8238Z" fill="#F4F4F4"/>
<path d="M269.592 28.1279C269.41 28.3192 269.306 28.5724 269.302 28.8367C269.302 29.1015 269.408 29.3555 269.595 29.5427C269.782 29.7299 270.036 29.8351 270.301 29.8351C270.566 29.8351 270.82 29.7299 271.007 29.5427C271.194 29.3555 271.299 29.1015 271.299 28.8367C271.3 28.6384 271.243 28.4443 271.133 28.279C271.023 28.1138 270.867 27.9849 270.684 27.9088C270.501 27.8328 270.299 27.813 270.105 27.852C269.91 27.891 269.732 27.9871 269.592 28.1279Z" fill="#F4F4F4"/>
<text fill="#F4F4F4" xml:space="preserve" style="white-space: pre" font-family="Poppins" font-size="15" font-weight="500" letter-spacing="0px"><tspan x="298.544" y="21.4387">100% Refund if </tspan><tspan x="298.544" y="40.8161">Unsatisfied</tspan></text>
<path d="M495.573 48.286C483.236 48.286 473.199 38.2492 473.199 25.9121C473.199 13.5751 483.236 3.53833 495.573 3.53833C507.91 3.53833 517.946 13.5751 517.946 25.9121C517.946 38.2492 507.909 48.286 495.573 48.286ZM495.573 5.04958C484.069 5.04958 474.709 14.4088 474.709 25.9121C474.709 37.4163 484.069 46.7747 495.573 46.7747C507.076 46.7747 516.435 37.4155 516.435 25.9121C516.435 14.4088 507.076 5.04958 495.573 5.04958Z" fill="#F4F4F4"/>
<path d="M495.576 8.83545C491.297 8.83545 487.815 12.3113 487.815 16.5899V20.4217H489.432V16.5899C489.432 13.7421 492.116 10.6328 494.964 10.6328C497.73 10.6328 499.12 11.9713 500.088 12.9396C501.056 13.9079 501.601 15.2206 501.603 16.5899V20.4217H503.33V16.5899C503.33 12.3113 499.855 8.83545 495.576 8.83545Z" fill="#F4F4F4"/>
<path d="M495.529 30.1849C496.713 30.1849 497.673 29.2249 497.673 28.0407C497.673 26.8565 496.713 25.8965 495.529 25.8965C494.345 25.8965 493.385 26.8565 493.385 28.0407C493.385 29.2249 494.345 30.1849 495.529 30.1849Z" fill="#F4F4F4"/>
<path d="M497.182 32.7691H493.872L494.697 29.0308H496.358L497.182 32.7691Z" fill="#F4F4F4"/>
<path d="M485.557 19.9851V36.4797L484.142 35.9982V21.3095C484.142 20.5742 484.731 19.9851 485.466 19.9851H485.557ZM506.888 21.3095V35.46L505.092 35.9983V19.9852L505.57 19.9851C506.299 19.9851 506.888 20.5742 506.888 21.3095ZM485.557 35.46V38.4817H485.466C484.731 38.4817 484.142 37.8926 484.142 37.1622V35.46L485.557 35.46ZM506.888 35.46V37.1622C506.888 37.8926 506.299 38.4817 505.569 38.4817L505.092 38.4817V35.4601L506.888 35.46Z" fill="#F4F4F4"/>
<path d="M485.403 19.9851H505.144V21.696H485.403V19.9851Z" fill="#F4F4F4"/>
<path d="M485.403 36.6319L505.144 36.6318V38.5221H485.403V36.6319Z" fill="#F4F4F4"/>
<text fill="#F4F4F4" xml:space="preserve" style="white-space: pre" font-family="Poppins" font-size="15" font-weight="500" letter-spacing="0px"><tspan x="533.441" y="21.4387">Private &#38; </tspan><tspan x="533.441" y="40.8161">Confidential</tspan></text>
<g clip-path="url(#clip1_1_23810)">
<path d="M729.679 46.0171H705.132V46.8644C705.132 47.0329 705.392 47.1946 705.855 47.3137C706.319 47.4329 706.947 47.4998 707.603 47.4998H732.563" fill="#F4F4F4"/>
<mask id="path-19-outside-1_1_23810" maskUnits="userSpaceOnUse" x="698.954" y="3.50024" width="45" height="45" fill="black">
<rect fill="white" x="698.954" y="3.50024" width="45" height="45"/>
<path d="M708.612 38.5536L705.916 41.2499L705.131 40.4646C705.072 40.4061 705.003 40.3597 704.926 40.3281C704.85 40.2964 704.768 40.2801 704.685 40.2801C704.602 40.2801 704.52 40.2964 704.444 40.3281C704.368 40.3598 704.298 40.4062 704.24 40.4647C704.181 40.5232 704.135 40.5926 704.103 40.669C704.071 40.7455 704.055 40.8274 704.055 40.9101C704.055 40.9928 704.072 41.0747 704.103 41.1512C704.135 41.2276 704.181 41.297 704.24 41.3555L705.47 42.5861C705.588 42.7042 705.749 42.7705 705.916 42.7705C706.083 42.7705 706.243 42.7042 706.361 42.5861L709.503 39.4445C709.621 39.3263 709.687 39.1661 709.687 38.999C709.687 38.832 709.621 38.6717 709.503 38.5536C709.385 38.4355 709.224 38.3691 709.057 38.3691C708.89 38.3691 708.73 38.4355 708.612 38.5536ZM712.811 13.8225H730.133C730.634 13.8219 731.114 13.6227 731.469 13.2684C731.823 12.9142 732.022 12.4338 732.023 11.9329V10.1692C732.022 9.6682 731.823 9.1879 731.469 8.83364C731.114 8.47939 730.634 8.28012 730.133 8.27954H712.811C712.31 8.28012 711.83 8.47939 711.476 8.83364C711.122 9.1879 710.922 9.6682 710.922 10.1692V11.9329C710.922 12.4338 711.122 12.9142 711.476 13.2684C711.83 13.6227 712.31 13.8219 712.811 13.8225ZM712.182 10.1692C712.182 10.0022 712.248 9.84208 712.366 9.72399C712.484 9.6059 712.644 9.53948 712.811 9.53931H730.133C730.3 9.53948 730.46 9.6059 730.578 9.72399C730.696 9.84208 730.763 10.0022 730.763 10.1692V11.9329C730.763 12.0999 730.696 12.26 730.578 12.3781C730.46 12.4961 730.3 12.5626 730.133 12.5627H712.811C712.644 12.5626 712.484 12.4961 712.366 12.3781C712.248 12.26 712.182 12.0999 712.182 11.9329V10.1692ZM732.091 16.9719C732.091 16.8049 732.025 16.6447 731.907 16.5265C731.789 16.4084 731.628 16.342 731.461 16.342H711.41C711.243 16.342 711.083 16.4084 710.965 16.5265C710.846 16.6447 710.78 16.8049 710.78 16.9719C710.78 17.139 710.846 17.2992 710.965 17.4173C711.083 17.5354 711.243 17.6018 711.41 17.6018H731.461C731.628 17.6018 731.789 17.5354 731.907 17.4173C732.025 17.2992 732.091 17.139 732.091 16.9719ZM741.96 13.8524C741.742 13.733 741.503 13.6576 741.256 13.6306C741.01 13.6036 740.76 13.6255 740.522 13.695C740.284 13.7645 740.061 13.8803 739.868 14.0357C739.675 14.1912 739.514 14.3832 739.394 14.6009L738.708 15.853L735.87 21.0318V11.6389H740.563C740.73 11.6389 740.89 11.5726 741.008 11.4544C741.126 11.3363 741.193 11.1761 741.193 11.009V7.79126C741.192 6.91873 740.845 6.08221 740.228 5.46524C739.611 4.84827 738.774 4.50122 737.902 4.50024C737.87 4.50024 737.839 4.50176 737.808 4.5026C737.792 4.5015 737.776 4.50024 737.76 4.50024H710.129C709.294 4.50118 708.494 4.83329 707.903 5.42372C707.313 6.01414 706.981 6.81467 706.98 7.64966L706.98 33.6403C705.651 33.6209 704.345 33.9842 703.217 34.6868C702.089 35.3894 701.187 36.4016 700.619 37.6026C700.051 38.8037 699.84 40.1429 700.012 41.4605C700.184 42.778 700.731 44.0183 701.589 45.0333C702.446 46.0483 703.578 46.7951 704.848 47.1847C706.118 47.5743 707.474 47.5902 708.753 47.2305C710.032 46.8708 711.181 46.1507 712.062 45.1562C712.943 44.1616 713.519 42.9345 713.722 41.6213H729.32V44.2248C729.32 45.0935 729.665 45.9266 730.279 46.5409C730.893 47.1552 731.727 47.5002 732.595 47.5002C733.464 47.5002 734.297 47.1552 734.911 46.5409C735.526 45.9266 735.871 45.0935 735.871 44.2248L735.87 28.8959L742.022 17.6695L742.707 16.4182C742.827 16.2007 742.902 15.9617 742.929 15.715C742.957 15.4683 742.935 15.2187 742.865 14.9804C742.796 14.7421 742.68 14.5198 742.525 14.3263C742.369 14.1328 742.177 13.9717 741.96 13.8524ZM735.871 7.79126C735.871 7.25254 736.085 6.73588 736.465 6.35495C736.846 5.97402 737.363 5.76001 737.902 5.76001C738.44 5.76001 738.957 5.97402 739.338 6.35495C739.719 6.73588 739.933 7.25254 739.933 7.79126V10.3791H735.871V7.79126ZM711.877 43.2313C711.439 44.0544 710.805 44.7569 710.031 45.2765C709.257 45.7961 708.367 46.1168 707.439 46.2102C706.512 46.3036 705.575 46.1668 704.713 45.8119C703.851 45.457 703.09 44.895 702.497 44.1757C701.904 43.4563 701.498 42.6018 701.314 41.6879C701.13 40.774 701.174 39.8288 701.443 38.9361C701.712 38.0434 702.196 37.2307 702.854 36.5701C703.512 35.9094 704.322 35.4212 705.214 35.1486C705.925 34.929 706.674 34.8527 707.415 34.9241C708.156 34.9955 708.876 35.2131 709.533 35.5645C710.19 35.914 710.772 36.3895 711.246 36.964C711.719 37.5384 712.075 38.2005 712.293 38.9124C712.51 39.6244 712.586 40.3722 712.514 41.1132C712.443 41.8543 712.226 42.574 711.877 43.2313ZM732.595 46.2405C732.061 46.2399 731.548 46.0273 731.171 45.6494C730.793 45.2716 730.58 44.7592 730.579 44.2248V40.9915C730.579 40.8244 730.513 40.6642 730.395 40.5461C730.277 40.4279 730.117 40.3616 729.95 40.3616C729.936 40.3616 729.922 40.3627 729.908 40.3637C729.894 40.3628 729.88 40.3616 729.866 40.3616H713.798C713.779 39.7451 713.677 39.134 713.497 38.5441C713.233 37.6729 712.799 36.8627 712.22 36.1603C711.641 35.4579 710.929 34.8773 710.124 34.4522C709.532 34.1367 708.897 33.9086 708.239 33.775L708.24 7.64966C708.24 7.14867 708.44 6.66837 708.794 6.31411C709.148 5.95986 709.628 5.76059 710.129 5.76001H735.315C734.858 6.33847 734.61 7.05417 734.611 7.79126V11.0009L734.61 11.009V23.3306L729.022 33.5291C729.016 33.5394 729.011 33.5498 729.006 33.5601C729.003 33.5671 728.999 33.5739 728.996 33.5812C728.978 33.6242 728.964 33.6693 728.955 33.7155L728.954 33.7194L728.328 37.1708C727.103 37.2782 725.87 37.221 724.661 37.0005C724.092 36.8901 723.53 36.7483 722.977 36.576C722.209 36.3481 721.545 36.1517 720.603 36.1829C719.239 36.2286 717.897 36.736 716.615 37.6913C716.483 37.7918 716.396 37.9403 716.373 38.1046C716.35 38.2688 716.393 38.4355 716.492 38.5685C716.591 38.7015 716.739 38.7901 716.903 38.8149C717.066 38.8398 717.234 38.799 717.368 38.7014C718.44 37.9027 719.543 37.4789 720.645 37.4419C721.384 37.4167 721.901 37.571 722.619 37.7837C723.213 37.9689 723.818 38.1208 724.43 38.2389C725.916 38.5092 727.434 38.5559 728.934 38.3774C728.942 38.3765 728.949 38.3748 728.957 38.3736C728.966 38.3721 728.976 38.3706 728.986 38.3687C728.997 38.3665 729.008 38.3639 729.018 38.3611C729.058 38.3511 729.096 38.3372 729.133 38.3197C729.14 38.3164 729.147 38.3128 729.154 38.3091C729.201 38.2851 729.243 38.2554 729.282 38.2207C729.285 38.2182 729.288 38.2159 729.291 38.2133L732.212 35.5048L732.217 35.4992C732.231 35.4862 732.244 35.4725 732.256 35.4582C732.259 35.4551 732.262 35.4523 732.265 35.449C732.28 35.4315 732.293 35.4133 732.306 35.3943C732.31 35.3884 732.313 35.3822 732.317 35.3762C732.323 35.3661 732.33 35.3562 732.336 35.3456L734.61 31.1948L734.611 44.2248C734.61 44.7592 734.398 45.2716 734.02 45.6494C733.642 46.0273 733.13 46.2399 732.595 46.2405ZM730.038 34.8043L730.605 35.1154L730.714 35.1753L729.82 36.0049L730.038 34.8043ZM734.687 28.4328L734.686 28.436L731.534 34.1878L730.981 33.885L730.429 33.5822L739.51 17.0109L740.614 17.6163L734.687 28.4328ZM741.603 15.8118L741.22 16.5115L740.972 16.3756L740.116 15.9062L740.499 15.2063C740.566 15.0837 740.673 14.987 740.801 14.9315C740.929 14.8759 741.072 14.8646 741.208 14.8994C741.343 14.9342 741.463 15.0131 741.549 15.1236C741.635 15.2342 741.681 15.3701 741.681 15.5099C741.681 15.6156 741.655 15.7195 741.603 15.8118Z"/>
</mask>
<path d="M708.612 38.5536L705.916 41.2499L705.131 40.4646C705.072 40.4061 705.003 40.3597 704.926 40.3281C704.85 40.2964 704.768 40.2801 704.685 40.2801C704.602 40.2801 704.52 40.2964 704.444 40.3281C704.368 40.3598 704.298 40.4062 704.24 40.4647C704.181 40.5232 704.135 40.5926 704.103 40.669C704.071 40.7455 704.055 40.8274 704.055 40.9101C704.055 40.9928 704.072 41.0747 704.103 41.1512C704.135 41.2276 704.181 41.297 704.24 41.3555L705.47 42.5861C705.588 42.7042 705.749 42.7705 705.916 42.7705C706.083 42.7705 706.243 42.7042 706.361 42.5861L709.503 39.4445C709.621 39.3263 709.687 39.1661 709.687 38.999C709.687 38.832 709.621 38.6717 709.503 38.5536C709.385 38.4355 709.224 38.3691 709.057 38.3691C708.89 38.3691 708.73 38.4355 708.612 38.5536ZM712.811 13.8225H730.133C730.634 13.8219 731.114 13.6227 731.469 13.2684C731.823 12.9142 732.022 12.4338 732.023 11.9329V10.1692C732.022 9.6682 731.823 9.1879 731.469 8.83364C731.114 8.47939 730.634 8.28012 730.133 8.27954H712.811C712.31 8.28012 711.83 8.47939 711.476 8.83364C711.122 9.1879 710.922 9.6682 710.922 10.1692V11.9329C710.922 12.4338 711.122 12.9142 711.476 13.2684C711.83 13.6227 712.31 13.8219 712.811 13.8225ZM712.182 10.1692C712.182 10.0022 712.248 9.84208 712.366 9.72399C712.484 9.6059 712.644 9.53948 712.811 9.53931H730.133C730.3 9.53948 730.46 9.6059 730.578 9.72399C730.696 9.84208 730.763 10.0022 730.763 10.1692V11.9329C730.763 12.0999 730.696 12.26 730.578 12.3781C730.46 12.4961 730.3 12.5626 730.133 12.5627H712.811C712.644 12.5626 712.484 12.4961 712.366 12.3781C712.248 12.26 712.182 12.0999 712.182 11.9329V10.1692ZM732.091 16.9719C732.091 16.8049 732.025 16.6447 731.907 16.5265C731.789 16.4084 731.628 16.342 731.461 16.342H711.41C711.243 16.342 711.083 16.4084 710.965 16.5265C710.846 16.6447 710.78 16.8049 710.78 16.9719C710.78 17.139 710.846 17.2992 710.965 17.4173C711.083 17.5354 711.243 17.6018 711.41 17.6018H731.461C731.628 17.6018 731.789 17.5354 731.907 17.4173C732.025 17.2992 732.091 17.139 732.091 16.9719ZM741.96 13.8524C741.742 13.733 741.503 13.6576 741.256 13.6306C741.01 13.6036 740.76 13.6255 740.522 13.695C740.284 13.7645 740.061 13.8803 739.868 14.0357C739.675 14.1912 739.514 14.3832 739.394 14.6009L738.708 15.853L735.87 21.0318V11.6389H740.563C740.73 11.6389 740.89 11.5726 741.008 11.4544C741.126 11.3363 741.193 11.1761 741.193 11.009V7.79126C741.192 6.91873 740.845 6.08221 740.228 5.46524C739.611 4.84827 738.774 4.50122 737.902 4.50024C737.87 4.50024 737.839 4.50176 737.808 4.5026C737.792 4.5015 737.776 4.50024 737.76 4.50024H710.129C709.294 4.50118 708.494 4.83329 707.903 5.42372C707.313 6.01414 706.981 6.81467 706.98 7.64966L706.98 33.6403C705.651 33.6209 704.345 33.9842 703.217 34.6868C702.089 35.3894 701.187 36.4016 700.619 37.6026C700.051 38.8037 699.84 40.1429 700.012 41.4605C700.184 42.778 700.731 44.0183 701.589 45.0333C702.446 46.0483 703.578 46.7951 704.848 47.1847C706.118 47.5743 707.474 47.5902 708.753 47.2305C710.032 46.8708 711.181 46.1507 712.062 45.1562C712.943 44.1616 713.519 42.9345 713.722 41.6213H729.32V44.2248C729.32 45.0935 729.665 45.9266 730.279 46.5409C730.893 47.1552 731.727 47.5002 732.595 47.5002C733.464 47.5002 734.297 47.1552 734.911 46.5409C735.526 45.9266 735.871 45.0935 735.871 44.2248L735.87 28.8959L742.022 17.6695L742.707 16.4182C742.827 16.2007 742.902 15.9617 742.929 15.715C742.957 15.4683 742.935 15.2187 742.865 14.9804C742.796 14.7421 742.68 14.5198 742.525 14.3263C742.369 14.1328 742.177 13.9717 741.96 13.8524ZM735.871 7.79126C735.871 7.25254 736.085 6.73588 736.465 6.35495C736.846 5.97402 737.363 5.76001 737.902 5.76001C738.44 5.76001 738.957 5.97402 739.338 6.35495C739.719 6.73588 739.933 7.25254 739.933 7.79126V10.3791H735.871V7.79126ZM711.877 43.2313C711.439 44.0544 710.805 44.7569 710.031 45.2765C709.257 45.7961 708.367 46.1168 707.439 46.2102C706.512 46.3036 705.575 46.1668 704.713 45.8119C703.851 45.457 703.09 44.895 702.497 44.1757C701.904 43.4563 701.498 42.6018 701.314 41.6879C701.13 40.774 701.174 39.8288 701.443 38.9361C701.712 38.0434 702.196 37.2307 702.854 36.5701C703.512 35.9094 704.322 35.4212 705.214 35.1486C705.925 34.929 706.674 34.8527 707.415 34.9241C708.156 34.9955 708.876 35.2131 709.533 35.5645C710.19 35.914 710.772 36.3895 711.246 36.964C711.719 37.5384 712.075 38.2005 712.293 38.9124C712.51 39.6244 712.586 40.3722 712.514 41.1132C712.443 41.8543 712.226 42.574 711.877 43.2313ZM732.595 46.2405C732.061 46.2399 731.548 46.0273 731.171 45.6494C730.793 45.2716 730.58 44.7592 730.579 44.2248V40.9915C730.579 40.8244 730.513 40.6642 730.395 40.5461C730.277 40.4279 730.117 40.3616 729.95 40.3616C729.936 40.3616 729.922 40.3627 729.908 40.3637C729.894 40.3628 729.88 40.3616 729.866 40.3616H713.798C713.779 39.7451 713.677 39.134 713.497 38.5441C713.233 37.6729 712.799 36.8627 712.22 36.1603C711.641 35.4579 710.929 34.8773 710.124 34.4522C709.532 34.1367 708.897 33.9086 708.239 33.775L708.24 7.64966C708.24 7.14867 708.44 6.66837 708.794 6.31411C709.148 5.95986 709.628 5.76059 710.129 5.76001H735.315C734.858 6.33847 734.61 7.05417 734.611 7.79126V11.0009L734.61 11.009V23.3306L729.022 33.5291C729.016 33.5394 729.011 33.5498 729.006 33.5601C729.003 33.5671 728.999 33.5739 728.996 33.5812C728.978 33.6242 728.964 33.6693 728.955 33.7155L728.954 33.7194L728.328 37.1708C727.103 37.2782 725.87 37.221 724.661 37.0005C724.092 36.8901 723.53 36.7483 722.977 36.576C722.209 36.3481 721.545 36.1517 720.603 36.1829C719.239 36.2286 717.897 36.736 716.615 37.6913C716.483 37.7918 716.396 37.9403 716.373 38.1046C716.35 38.2688 716.393 38.4355 716.492 38.5685C716.591 38.7015 716.739 38.7901 716.903 38.8149C717.066 38.8398 717.234 38.799 717.368 38.7014C718.44 37.9027 719.543 37.4789 720.645 37.4419C721.384 37.4167 721.901 37.571 722.619 37.7837C723.213 37.9689 723.818 38.1208 724.43 38.2389C725.916 38.5092 727.434 38.5559 728.934 38.3774C728.942 38.3765 728.949 38.3748 728.957 38.3736C728.966 38.3721 728.976 38.3706 728.986 38.3687C728.997 38.3665 729.008 38.3639 729.018 38.3611C729.058 38.3511 729.096 38.3372 729.133 38.3197C729.14 38.3164 729.147 38.3128 729.154 38.3091C729.201 38.2851 729.243 38.2554 729.282 38.2207C729.285 38.2182 729.288 38.2159 729.291 38.2133L732.212 35.5048L732.217 35.4992C732.231 35.4862 732.244 35.4725 732.256 35.4582C732.259 35.4551 732.262 35.4523 732.265 35.449C732.28 35.4315 732.293 35.4133 732.306 35.3943C732.31 35.3884 732.313 35.3822 732.317 35.3762C732.323 35.3661 732.33 35.3562 732.336 35.3456L734.61 31.1948L734.611 44.2248C734.61 44.7592 734.398 45.2716 734.02 45.6494C733.642 46.0273 733.13 46.2399 732.595 46.2405ZM730.038 34.8043L730.605 35.1154L730.714 35.1753L729.82 36.0049L730.038 34.8043ZM734.687 28.4328L734.686 28.436L731.534 34.1878L730.981 33.885L730.429 33.5822L739.51 17.0109L740.614 17.6163L734.687 28.4328ZM741.603 15.8118L741.22 16.5115L740.972 16.3756L740.116 15.9062L740.499 15.2063C740.566 15.0837 740.673 14.987 740.801 14.9315C740.929 14.8759 741.072 14.8646 741.208 14.8994C741.343 14.9342 741.463 15.0131 741.549 15.1236C741.635 15.2342 741.681 15.3701 741.681 15.5099C741.681 15.6156 741.655 15.7195 741.603 15.8118Z" fill="#F4F4F4"/>
<path d="M708.612 38.5536L705.916 41.2499L705.131 40.4646C705.072 40.4061 705.003 40.3597 704.926 40.3281C704.85 40.2964 704.768 40.2801 704.685 40.2801C704.602 40.2801 704.52 40.2964 704.444 40.3281C704.368 40.3598 704.298 40.4062 704.24 40.4647C704.181 40.5232 704.135 40.5926 704.103 40.669C704.071 40.7455 704.055 40.8274 704.055 40.9101C704.055 40.9928 704.072 41.0747 704.103 41.1512C704.135 41.2276 704.181 41.297 704.24 41.3555L705.47 42.5861C705.588 42.7042 705.749 42.7705 705.916 42.7705C706.083 42.7705 706.243 42.7042 706.361 42.5861L709.503 39.4445C709.621 39.3263 709.687 39.1661 709.687 38.999C709.687 38.832 709.621 38.6717 709.503 38.5536C709.385 38.4355 709.224 38.3691 709.057 38.3691C708.89 38.3691 708.73 38.4355 708.612 38.5536ZM712.811 13.8225H730.133C730.634 13.8219 731.114 13.6227 731.469 13.2684C731.823 12.9142 732.022 12.4338 732.023 11.9329V10.1692C732.022 9.6682 731.823 9.1879 731.469 8.83364C731.114 8.47939 730.634 8.28012 730.133 8.27954H712.811C712.31 8.28012 711.83 8.47939 711.476 8.83364C711.122 9.1879 710.922 9.6682 710.922 10.1692V11.9329C710.922 12.4338 711.122 12.9142 711.476 13.2684C711.83 13.6227 712.31 13.8219 712.811 13.8225ZM712.182 10.1692C712.182 10.0022 712.248 9.84208 712.366 9.72399C712.484 9.6059 712.644 9.53948 712.811 9.53931H730.133C730.3 9.53948 730.46 9.6059 730.578 9.72399C730.696 9.84208 730.763 10.0022 730.763 10.1692V11.9329C730.763 12.0999 730.696 12.26 730.578 12.3781C730.46 12.4961 730.3 12.5626 730.133 12.5627H712.811C712.644 12.5626 712.484 12.4961 712.366 12.3781C712.248 12.26 712.182 12.0999 712.182 11.9329V10.1692ZM732.091 16.9719C732.091 16.8049 732.025 16.6447 731.907 16.5265C731.789 16.4084 731.628 16.342 731.461 16.342H711.41C711.243 16.342 711.083 16.4084 710.965 16.5265C710.846 16.6447 710.78 16.8049 710.78 16.9719C710.78 17.139 710.846 17.2992 710.965 17.4173C711.083 17.5354 711.243 17.6018 711.41 17.6018H731.461C731.628 17.6018 731.789 17.5354 731.907 17.4173C732.025 17.2992 732.091 17.139 732.091 16.9719ZM741.96 13.8524C741.742 13.733 741.503 13.6576 741.256 13.6306C741.01 13.6036 740.76 13.6255 740.522 13.695C740.284 13.7645 740.061 13.8803 739.868 14.0357C739.675 14.1912 739.514 14.3832 739.394 14.6009L738.708 15.853L735.87 21.0318V11.6389H740.563C740.73 11.6389 740.89 11.5726 741.008 11.4544C741.126 11.3363 741.193 11.1761 741.193 11.009V7.79126C741.192 6.91873 740.845 6.08221 740.228 5.46524C739.611 4.84827 738.774 4.50122 737.902 4.50024C737.87 4.50024 737.839 4.50176 737.808 4.5026C737.792 4.5015 737.776 4.50024 737.76 4.50024H710.129C709.294 4.50118 708.494 4.83329 707.903 5.42372C707.313 6.01414 706.981 6.81467 706.98 7.64966L706.98 33.6403C705.651 33.6209 704.345 33.9842 703.217 34.6868C702.089 35.3894 701.187 36.4016 700.619 37.6026C700.051 38.8037 699.84 40.1429 700.012 41.4605C700.184 42.778 700.731 44.0183 701.589 45.0333C702.446 46.0483 703.578 46.7951 704.848 47.1847C706.118 47.5743 707.474 47.5902 708.753 47.2305C710.032 46.8708 711.181 46.1507 712.062 45.1562C712.943 44.1616 713.519 42.9345 713.722 41.6213H729.32V44.2248C729.32 45.0935 729.665 45.9266 730.279 46.5409C730.893 47.1552 731.727 47.5002 732.595 47.5002C733.464 47.5002 734.297 47.1552 734.911 46.5409C735.526 45.9266 735.871 45.0935 735.871 44.2248L735.87 28.8959L742.022 17.6695L742.707 16.4182C742.827 16.2007 742.902 15.9617 742.929 15.715C742.957 15.4683 742.935 15.2187 742.865 14.9804C742.796 14.7421 742.68 14.5198 742.525 14.3263C742.369 14.1328 742.177 13.9717 741.96 13.8524ZM735.871 7.79126C735.871 7.25254 736.085 6.73588 736.465 6.35495C736.846 5.97402 737.363 5.76001 737.902 5.76001C738.44 5.76001 738.957 5.97402 739.338 6.35495C739.719 6.73588 739.933 7.25254 739.933 7.79126V10.3791H735.871V7.79126ZM711.877 43.2313C711.439 44.0544 710.805 44.7569 710.031 45.2765C709.257 45.7961 708.367 46.1168 707.439 46.2102C706.512 46.3036 705.575 46.1668 704.713 45.8119C703.851 45.457 703.09 44.895 702.497 44.1757C701.904 43.4563 701.498 42.6018 701.314 41.6879C701.13 40.774 701.174 39.8288 701.443 38.9361C701.712 38.0434 702.196 37.2307 702.854 36.5701C703.512 35.9094 704.322 35.4212 705.214 35.1486C705.925 34.929 706.674 34.8527 707.415 34.9241C708.156 34.9955 708.876 35.2131 709.533 35.5645C710.19 35.914 710.772 36.3895 711.246 36.964C711.719 37.5384 712.075 38.2005 712.293 38.9124C712.51 39.6244 712.586 40.3722 712.514 41.1132C712.443 41.8543 712.226 42.574 711.877 43.2313ZM732.595 46.2405C732.061 46.2399 731.548 46.0273 731.171 45.6494C730.793 45.2716 730.58 44.7592 730.579 44.2248V40.9915C730.579 40.8244 730.513 40.6642 730.395 40.5461C730.277 40.4279 730.117 40.3616 729.95 40.3616C729.936 40.3616 729.922 40.3627 729.908 40.3637C729.894 40.3628 729.88 40.3616 729.866 40.3616H713.798C713.779 39.7451 713.677 39.134 713.497 38.5441C713.233 37.6729 712.799 36.8627 712.22 36.1603C711.641 35.4579 710.929 34.8773 710.124 34.4522C709.532 34.1367 708.897 33.9086 708.239 33.775L708.24 7.64966C708.24 7.14867 708.44 6.66837 708.794 6.31411C709.148 5.95986 709.628 5.76059 710.129 5.76001H735.315C734.858 6.33847 734.61 7.05417 734.611 7.79126V11.0009L734.61 11.009V23.3306L729.022 33.5291C729.016 33.5394 729.011 33.5498 729.006 33.5601C729.003 33.5671 728.999 33.5739 728.996 33.5812C728.978 33.6242 728.964 33.6693 728.955 33.7155L728.954 33.7194L728.328 37.1708C727.103 37.2782 725.87 37.221 724.661 37.0005C724.092 36.8901 723.53 36.7483 722.977 36.576C722.209 36.3481 721.545 36.1517 720.603 36.1829C719.239 36.2286 717.897 36.736 716.615 37.6913C716.483 37.7918 716.396 37.9403 716.373 38.1046C716.35 38.2688 716.393 38.4355 716.492 38.5685C716.591 38.7015 716.739 38.7901 716.903 38.8149C717.066 38.8398 717.234 38.799 717.368 38.7014C718.44 37.9027 719.543 37.4789 720.645 37.4419C721.384 37.4167 721.901 37.571 722.619 37.7837C723.213 37.9689 723.818 38.1208 724.43 38.2389C725.916 38.5092 727.434 38.5559 728.934 38.3774C728.942 38.3765 728.949 38.3748 728.957 38.3736C728.966 38.3721 728.976 38.3706 728.986 38.3687C728.997 38.3665 729.008 38.3639 729.018 38.3611C729.058 38.3511 729.096 38.3372 729.133 38.3197C729.14 38.3164 729.147 38.3128 729.154 38.3091C729.201 38.2851 729.243 38.2554 729.282 38.2207C729.285 38.2182 729.288 38.2159 729.291 38.2133L732.212 35.5048L732.217 35.4992C732.231 35.4862 732.244 35.4725 732.256 35.4582C732.259 35.4551 732.262 35.4523 732.265 35.449C732.28 35.4315 732.293 35.4133 732.306 35.3943C732.31 35.3884 732.313 35.3822 732.317 35.3762C732.323 35.3661 732.33 35.3562 732.336 35.3456L734.61 31.1948L734.611 44.2248C734.61 44.7592 734.398 45.2716 734.02 45.6494C733.642 46.0273 733.13 46.2399 732.595 46.2405ZM730.038 34.8043L730.605 35.1154L730.714 35.1753L729.82 36.0049L730.038 34.8043ZM734.687 28.4328L734.686 28.436L731.534 34.1878L730.981 33.885L730.429 33.5822L739.51 17.0109L740.614 17.6163L734.687 28.4328ZM741.603 15.8118L741.22 16.5115L740.972 16.3756L740.116 15.9062L740.499 15.2063C740.566 15.0837 740.673 14.987 740.801 14.9315C740.929 14.8759 741.072 14.8646 741.208 14.8994C741.343 14.9342 741.463 15.0131 741.549 15.1236C741.635 15.2342 741.681 15.3701 741.681 15.5099C741.681 15.6156 741.655 15.7195 741.603 15.8118Z" stroke="#F4F4F4" stroke-width="0.149057" mask="url(#path-19-outside-1_1_23810)"/>
</g>
<text fill="#F4F4F4" xml:space="preserve" style="white-space: pre" font-family="Poppins" font-size="15" font-weight="500" letter-spacing="0px"><tspan x="754.865" y="21.4387">Verified </tspan><tspan x="754.865" y="40.8161">Astrologer</tspan></text>
<g clip-path="url(#clip2_1_23810)">
<path d="M961.898 9.3111C961.898 9.14016 961.825 8.97622 961.696 8.85534C961.566 8.73447 961.391 8.66657 961.208 8.66657H956.143C955.96 8.66657 955.785 8.73447 955.655 8.85534C955.526 8.97622 955.453 9.14016 955.453 9.3111C955.453 9.48204 955.526 9.64598 955.655 9.76685C955.785 9.88772 955.96 9.95563 956.143 9.95563H957.064C957.492 9.95614 957.91 10.0803 958.26 10.3111C958.609 10.5419 958.874 10.868 959.017 11.2447H956.143C955.96 11.2447 955.785 11.3126 955.655 11.4335C955.526 11.5543 955.453 11.7183 955.453 11.8892C955.453 12.0602 955.526 12.2241 955.655 12.345C955.785 12.4658 955.96 12.5338 956.143 12.5338H959.017C958.874 12.9104 958.609 13.2365 958.26 13.4673C957.91 13.6981 957.492 13.8223 957.064 13.8228H956.143C956.008 13.8228 955.876 13.8599 955.763 13.9294C955.65 13.9989 955.562 14.0978 955.508 14.2139C955.455 14.3299 955.44 14.458 955.464 14.5822C955.488 14.7064 955.551 14.8212 955.644 14.9125L959.327 18.5116C959.453 18.6352 959.627 18.7068 959.811 18.7108C959.994 18.7147 960.171 18.6505 960.303 18.5325C960.436 18.4144 960.513 18.252 960.517 18.0811C960.521 17.9102 960.452 17.7447 960.326 17.6211L957.702 15.0568C958.375 14.9373 958.996 14.6337 959.485 14.1845C959.974 13.7353 960.308 13.1607 960.447 12.5337H961.208C961.391 12.5337 961.566 12.4658 961.696 12.3449C961.825 12.224 961.898 12.0601 961.898 11.8891C961.898 11.7182 961.825 11.5543 961.696 11.4334C961.566 11.3125 961.391 11.2446 961.208 11.2446H960.448C960.345 10.777 960.132 10.3366 959.825 9.95554H961.208C961.391 9.95554 961.566 9.88764 961.696 9.76676C961.825 9.64589 961.898 9.48204 961.898 9.3111ZM945.555 25.6337V21.963C945.555 21.792 945.482 21.6281 945.352 21.5072C945.223 21.3864 945.047 21.3185 944.864 21.3185C944.681 21.3185 944.505 21.3864 944.376 21.5072C944.246 21.6281 944.173 21.792 944.173 21.963V25.6218L941.142 24.5371C940.972 24.4779 940.783 24.4839 940.617 24.5538C940.452 24.6237 940.322 24.7519 940.257 24.9104C940.192 25.069 940.196 25.2451 940.27 25.4006C940.343 25.556 940.479 25.6782 940.648 25.7406L943.763 26.8555L941.518 29.6509C941.409 29.7877 941.361 29.9596 941.387 30.1288C941.413 30.2981 941.51 30.4507 941.657 30.5533C941.803 30.6558 941.988 30.6998 942.169 30.6755C942.35 30.6513 942.514 30.5609 942.624 30.4241L944.878 27.6165L947.262 30.4367C947.375 30.5709 947.541 30.6575 947.723 30.6776C947.905 30.6976 948.088 30.6494 948.232 30.5435C948.376 30.4376 948.469 30.2828 948.49 30.113C948.511 29.9432 948.46 29.7725 948.346 29.6382L945.995 26.8562L949.22 25.7433C949.389 25.6824 949.526 25.5617 949.601 25.4073C949.675 25.2529 949.682 25.0772 949.619 24.9183C949.556 24.7594 949.429 24.63 949.264 24.5581C949.1 24.4863 948.912 24.4777 948.741 24.5343L945.555 25.6337ZM958.675 4.00024C957.171 4.00026 955.687 4.3227 954.338 4.9427C952.988 5.56269 951.809 6.46368 950.892 7.57619C948.907 6.66716 947.058 5.51885 945.394 4.16069C945.263 4.05349 945.094 3.99627 944.92 4.00048C944.746 4.00469 944.58 4.07 944.455 4.18338C942.807 5.67463 940.917 6.91425 938.855 7.85669C934.627 9.80592 930.413 10.2629 927.622 10.303C927.441 10.3056 927.268 10.3747 927.141 10.4952C927.014 10.6158 926.942 10.7782 926.942 10.9474V23.9721C926.942 28.929 928.636 33.7907 931.842 38.0318C934.941 42.1322 939.365 45.5569 944.637 47.936C944.731 47.9783 944.834 48.0003 944.938 48.0003C945.042 48.0003 945.145 47.9783 945.238 47.936C950.51 45.5569 954.935 42.1322 958.034 38.0318C961.239 33.7908 962.933 28.929 962.933 23.9721V21.4507C964.942 20.5502 966.564 19.0396 967.532 17.1662C968.501 15.2929 968.759 13.1681 968.264 11.14C967.769 9.11188 966.551 7.30083 964.809 6.00363C963.066 4.70644 960.904 4.00005 958.675 4.00024ZM961.552 23.9721C961.552 28.6615 959.945 33.2663 956.905 37.2888C954 41.1332 949.867 44.3608 944.938 46.6381C940.008 44.3608 935.876 41.1332 932.97 37.2888C929.93 33.2664 928.323 28.6615 928.323 23.9721V11.5748C931.237 11.4692 935.341 10.9149 939.467 9.01246C941.468 8.09629 943.318 6.9176 944.961 5.51223C946.545 6.74272 948.276 7.79819 950.12 8.65763C949.739 9.28342 949.438 9.94914 949.224 10.6409C947.907 10.0336 946.641 9.33554 945.435 8.55244C945.316 8.47472 945.173 8.43416 945.028 8.43655C944.882 8.43894 944.741 8.48416 944.625 8.56576C943.327 9.47445 941.942 10.2688 940.487 10.9385C937.574 12.2668 934.445 13.1335 931.228 13.5033C931.062 13.5232 930.908 13.5991 930.798 13.7168C930.687 13.8345 930.625 13.9859 930.625 14.1427V23.9721C930.625 28.2154 932.087 32.3921 934.852 36.0508C937.252 39.2279 940.624 41.9939 944.603 44.0499C944.705 44.1028 944.821 44.1305 944.938 44.1305C945.055 44.1305 945.17 44.1028 945.272 44.0499C949.251 41.9939 952.623 39.2279 955.024 36.0509C957.789 32.3921 959.25 28.2154 959.25 23.9721V22.3402C960.031 22.2983 960.804 22.1692 961.552 21.9554V23.9721ZM957.869 22.3252V23.9721C957.869 27.9478 956.495 31.8677 953.895 35.308C951.681 38.2379 948.589 40.8042 944.938 42.7467C941.286 40.8042 938.194 38.2379 935.98 35.3079C933.381 31.8678 932.006 27.9478 932.006 23.9721V14.7046C935.165 14.2844 938.233 13.4035 941.098 12.0943C942.481 11.4575 943.804 10.714 945.054 9.87158C946.292 10.6477 947.588 11.3397 948.931 11.9423C948.752 13.1771 948.843 14.4332 949.2 15.6339C949.558 16.8346 950.173 17.9548 951.01 18.9263C951.846 19.8978 952.885 20.7002 954.064 21.2845C955.244 21.8689 956.538 22.223 957.869 22.3253L957.869 22.3252ZM958.675 21.0673C957.004 21.0673 955.369 20.6046 953.979 19.7377C952.589 18.8709 951.506 17.6388 950.866 16.1973C950.227 14.7558 950.059 13.1696 950.385 11.6393C950.711 10.1089 951.516 8.70326 952.699 7.59997C953.881 6.49667 955.387 5.74531 957.026 5.4409C958.666 5.13649 960.365 5.29271 961.91 5.88979C963.454 6.48688 964.775 7.49802 965.703 8.79534C966.632 10.0927 967.128 11.6179 967.128 13.1782C967.125 15.2698 966.234 17.275 964.649 18.754C963.065 20.233 960.916 21.0649 958.675 21.0673Z" fill="#F4F4F4"/>
</g>
<text fill="#F4F4F4" xml:space="preserve" style="white-space: pre" font-family="Poppins" font-size="15" font-weight="500" letter-spacing="0px"><tspan x="980.433" y="21.4387">Secure </tspan><tspan x="980.433" y="40.8161">Payment</tspan></text>
<defs>
<clipPath id="clip0_1_23810">
<rect width="44" height="44" fill="white" transform="translate(0 4)"/>
</clipPath>
<clipPath id="clip1_1_23810">
<rect width="43" height="43" fill="white" transform="translate(699.941 4.5)"/>
</clipPath>
<clipPath id="clip2_1_23810">
<rect width="47.1429" height="44" fill="white" transform="translate(921.365 4)"/>
</clipPath>
</defs>
</svg>
