<svg width="223" height="44" viewBox="0 0 223 44" fill="none" xmlns="http://www.w3.org/2000/svg">
<circle cx="20.2728" cy="24.4073" r="18.9297" transform="rotate(-1 20.2728 24.4073)" fill="#F9F9F9"/>
<g clip-path="url(#clip0_1_22801)">
<path d="M34.5494 24.1583C34.4206 16.7823 27.9244 10.9144 20.0397 11.0521C12.155 11.1897 5.86756 17.2807 5.9963 24.6567C6.11266 31.3228 11.4298 36.7569 18.2724 37.6396L18.1095 28.307L14.4846 28.3703L14.4172 24.5098L18.0421 24.4465L17.9908 21.5041C17.9323 18.1569 20.0315 16.2708 23.2925 16.2139C24.8545 16.1866 26.4929 16.4189 26.4929 16.4189L26.5502 19.7056L24.75 19.7371C22.9765 19.768 22.4414 20.8071 22.4598 21.8633L22.5035 24.3686L26.4631 24.2995L25.8975 28.1711L22.5709 28.2292L22.7338 37.5618C29.5415 36.4408 34.6657 30.8244 34.5494 24.1583Z" fill="#1877F2"/>
<path d="M25.8975 28.1712L26.463 24.2996L22.5035 24.3687L22.4598 21.8634C22.4414 20.8072 22.9765 19.7681 24.7499 19.7371L26.5502 19.7057L26.4928 16.419C26.4928 16.419 24.8545 16.1867 23.2925 16.2139C20.0314 16.2709 17.9323 18.157 17.9907 21.5042L18.0421 24.4466L14.4172 24.5098L14.4846 28.3704L18.1095 28.3071L18.2724 37.6397C19.7543 37.8303 21.2594 37.8041 22.7338 37.5618L22.5709 28.2292L25.8975 28.1712Z" fill="#F8F8F8"/>
</g>
<circle cx="81.1488" cy="22.2815" r="18.9297" transform="rotate(-1 81.1488 22.2815)" fill="#F9F9F9"/>
<g clip-path="url(#clip1_1_22801)">
<path d="M84.936 11.62L76.9917 11.7587C75.236 11.7894 73.5643 12.5162 72.3444 13.7794C71.1246 15.0426 70.4565 16.7387 70.4871 18.4944L70.6258 26.4386C70.6565 28.1944 71.3833 29.8661 72.6465 31.086C73.9097 32.3058 75.6057 32.9739 77.3615 32.9432L85.3057 32.8046C87.0615 32.7739 88.7332 32.0471 89.953 30.7839C91.1729 29.5207 91.841 27.8246 91.8103 26.0689L91.6717 18.1247C91.641 16.3689 90.9142 14.6972 89.651 13.4773C88.3878 12.2575 86.6917 11.5894 84.936 11.62V11.62ZM89.8243 26.1035C89.8689 28.6589 87.8264 30.7739 85.2711 30.8185L77.3269 30.9572C74.7715 31.0018 72.6565 28.9594 72.6119 26.404L72.4732 18.4598C72.4286 15.9044 74.471 13.7894 77.0264 13.7448L84.9706 13.6061C87.526 13.5615 89.641 15.6039 89.6856 18.1593L89.8243 26.1035Z" fill="url(#paint0_linear_1_22801)"/>
<path d="M81.0564 16.9854C79.6518 17.01 78.3144 17.5915 77.3385 18.602C76.3627 19.6126 75.8282 20.9694 75.8527 22.374C75.8772 23.7786 76.4587 25.116 77.4693 26.0919C78.4798 27.0678 79.8367 27.6022 81.2413 27.5777C82.6459 27.5532 83.9833 26.9717 84.9591 25.9611C85.935 24.9506 86.4695 23.5937 86.445 22.1891C86.4204 20.7845 85.839 19.4472 84.8284 18.4713C83.8178 17.4954 82.461 16.9609 81.0564 16.9854ZM81.2066 25.5917C80.329 25.6059 79.4816 25.2715 78.8502 24.6618C78.2189 24.0521 77.8551 23.2169 77.8387 22.3393C77.8069 20.5135 79.2665 19.0033 81.0911 18.9715C82.9156 18.9396 84.427 20.398 84.4589 22.2238C84.4908 24.0483 83.0311 25.5598 81.2066 25.5917Z" fill="url(#paint1_linear_1_22801)"/>
<path d="M86.755 17.1948C87.1448 17.188 87.4552 16.8665 87.4484 16.4767C87.4416 16.087 87.1201 15.7765 86.7304 15.7833C86.3406 15.7901 86.0302 16.1116 86.037 16.5014C86.0438 16.8911 86.3653 17.2016 86.755 17.1948Z" fill="url(#paint2_linear_1_22801)"/>
</g>
<circle cx="142.032" cy="21.2181" r="18.9297" transform="rotate(-1 142.032 21.2181)" fill="#F9F9F9"/>
<g clip-path="url(#clip2_1_22801)">
<path d="M152.521 15.1267C151.73 15.4882 150.891 15.7339 150.03 15.8562C150.93 15.301 151.595 14.4351 151.899 13.4224C151.056 13.9422 150.131 14.314 149.163 14.5218C148.557 13.8963 147.776 13.4678 146.923 13.2918C146.069 13.1158 145.183 13.2005 144.378 13.5349C143.574 13.8693 142.888 14.438 142.411 15.1669C141.934 15.8959 141.687 16.7516 141.702 17.6227C141.709 17.967 141.743 18.2975 141.82 18.6113C140.091 18.5568 138.393 18.1379 136.837 17.382C135.28 16.6261 133.901 15.5503 132.789 14.2248C132.248 15.1903 132.096 16.3257 132.362 17.3998C132.629 18.4739 133.295 19.4059 134.225 20.0061C133.537 19.9997 132.861 19.828 132.254 19.5054L132.255 19.5531C132.273 20.556 132.637 21.5218 133.284 22.2879C133.931 23.0541 134.823 23.5739 135.809 23.7597C135.439 23.8641 135.057 23.9189 134.672 23.9226C134.397 23.9323 134.12 23.9123 133.849 23.8628C134.145 24.7199 134.699 25.4642 135.435 25.9934C136.171 26.5225 137.053 26.8104 137.96 26.8174C136.444 28.0465 134.559 28.7318 132.607 28.7637C132.251 28.7699 131.909 28.76 131.567 28.7223C133.575 29.9673 135.901 30.6039 138.264 30.5549C146.255 30.4155 150.509 23.719 150.409 17.9807C150.406 17.7887 150.396 17.6034 150.383 17.4195C151.229 16.7915 151.953 16.0146 152.521 15.1267Z" fill="#03A9F4"/>
</g>
<circle cx="202.914" cy="20.1556" r="18.9297" transform="rotate(-1 202.914 20.1556)" fill="#F9F9F9"/>
<path fill-rule="evenodd" clip-rule="evenodd" d="M212.639 13.6786C212.037 12.6756 211.401 12.4999 210.112 12.4505C208.823 12.3866 205.587 12.405 202.784 12.4516C199.975 12.4983 196.739 12.5876 195.455 12.6929C194.171 12.7864 193.541 12.9819 192.971 14.0056C192.389 15.0269 192.112 16.774 192.168 19.8407L192.168 19.8512C192.224 22.9048 192.565 24.6547 193.184 25.6455C193.791 26.6483 194.427 26.8214 195.714 26.8853C197.002 26.9374 200.24 26.9268 203.048 26.8801C205.851 26.8335 209.086 26.7364 210.373 26.6428C211.659 26.5362 212.289 26.342 212.853 25.3197C213.441 24.3088 213.715 22.5487 213.659 19.4951L213.658 19.4846C213.602 16.4166 213.264 14.6798 212.639 13.6786Z" fill="#F44336"/>
<path fill-rule="evenodd" clip-rule="evenodd" d="M200.3 23.6442L200.156 15.7761L206.942 19.5985L200.3 23.6442Z" fill="#FAFAFA"/>
<defs>
<linearGradient id="paint0_linear_1_22801" x1="72.6459" y1="31.0866" x2="89.6516" y2="13.4767" gradientUnits="userSpaceOnUse">
<stop stop-color="#FFC107"/>
<stop offset="0.507" stop-color="#F44336"/>
<stop offset="0.99" stop-color="#9C27B0"/>
</linearGradient>
<linearGradient id="paint1_linear_1_22801" x1="77.4698" y1="26.0913" x2="84.8278" y2="18.4718" gradientUnits="userSpaceOnUse">
<stop stop-color="#FFC107"/>
<stop offset="0.507" stop-color="#F44336"/>
<stop offset="0.99" stop-color="#9C27B0"/>
</linearGradient>
<linearGradient id="paint2_linear_1_22801" x1="86.2522" y1="16.9969" x2="87.2331" y2="15.9812" gradientUnits="userSpaceOnUse">
<stop stop-color="#FFC107"/>
<stop offset="0.507" stop-color="#F44336"/>
<stop offset="0.99" stop-color="#9C27B0"/>
</linearGradient>
<clipPath id="clip0_1_22801">
<rect width="28.5574" height="26.715" fill="white" transform="translate(5.76318 11.3013) rotate(-1)"/>
</clipPath>
<clipPath id="clip1_1_22801">
<rect width="21.1878" height="21.1878" fill="white" transform="translate(70.3716 11.8743) rotate(-1)"/>
</clipPath>
<clipPath id="clip2_1_22801">
<rect width="21.1878" height="21.1878" fill="white" transform="translate(131.254 10.8108) rotate(-1)"/>
</clipPath>
</defs>
</svg>
